HIERARCHY
ROOT Hips
{
	OFFSET -10.056300 7.733760 -472.550000
	CHANNELS 6 Xposition Yposition Zposition Zrotation Yrotation Xrotation 
	JOINT Spine
	{
		OFFSET 0.000000 0.000000 0.000000
		CHANNELS 3 Zrotation Yrotation Xrotation
		JOINT Spine1
		{
			OFFSET 19.000000 0.000000 0.000000
			CHANNELS 3 Zrotation Yrotation Xrotation
			JOINT Neck
			{
				OFFSET 22.500000 0.600000 0.000000
				CHANNELS 3 Zrotation Yrotation Xrotation
				JOINT Head
				{
					OFFSET 14.000000 0.030878 0.000000
					CHANNELS 3 Zrotation Yrotation Xrotation
					End Site
					{
						OFFSET 17.000000 0.000000 0.000000
					}
				}
			}
			JOINT LeftShoulder
			{
				OFFSET 19.800000 3.700000 4.300000
				CHANNELS 3 Zrotation Yrotation Xrotation
				JOINT LeftArm
				{
					OFFSET 8.000000 0.000000 0.000000
					CHANNELS 3 Zrotation Yrotation Xrotation
					JOINT LeftForeArm
					{
						OFFSET 15.200000 0.000000 0.000000
						CHANNELS 3 Zrotation Yrotation Xrotation
						JOINT LeftHand
						{
							OFFSET 17.800000 0.000000 0.000000
							CHANNELS 3 Zrotation Yrotation Xrotation
							End Site
							{
								OFFSET 7.200000 0.000000 0.000000
							}
						}
					}
				}
			}
			JOINT RightShoulder
			{
				OFFSET 19.800000 3.700000 -4.300000
				CHANNELS 3 Zrotation Yrotation Xrotation
				JOINT RightArm
				{
					OFFSET 8.000000 0.000000 0.151654
					CHANNELS 3 Zrotation Yrotation Xrotation
					JOINT RightForeArm
					{
						OFFSET 15.200000 0.000000 0.000000
						CHANNELS 3 Zrotation Yrotation Xrotation
						JOINT RightHand
						{
							OFFSET 17.800000 0.000000 0.000000
							CHANNELS 3 Zrotation Yrotation Xrotation
							End Site
							{
								OFFSET 7.200000 0.000000 0.000000
							}
						}
					}
				}
			}
		}
	}
	JOINT LeftUpLeg
	{
		OFFSET 5.984250 -7.666000 4.788790
		CHANNELS 3 Zrotation Yrotation Xrotation
		JOINT LeftLeg
		{
			OFFSET 16.000000 0.000000 0.000000
			CHANNELS 3 Zrotation Yrotation Xrotation
			JOINT LeftFoot
			{
				OFFSET 18.000000 0.000000 0.000000
				CHANNELS 3 Zrotation Yrotation Xrotation
				End Site
				{
					OFFSET 0.000000 -10.800000 0.000000
				}
			}
		}
	}
	JOINT RightUpLeg
	{
		OFFSET 5.984250 -7.665980 -4.788790
		CHANNELS 3 Zrotation Yrotation Xrotation
		JOINT RightLeg
		{
			OFFSET 16.000000 0.000000 0.000000
			CHANNELS 3 Zrotation Yrotation Xrotation
			JOINT RightFoot
			{
				OFFSET 18.000000 0.000000 0.000000
				CHANNELS 3 Zrotation Yrotation Xrotation
				End Site
				{
					OFFSET 0.000000 -10.800000 0.000000
				}
			}
		}
	}
	JOINT Tail
	{
		OFFSET 6.836960 -0.722574 0.000000
		CHANNELS 3 Zrotation Yrotation Xrotation
		JOINT Tail1
		{
			OFFSET 12.000000 0.000000 0.000000
			CHANNELS 3 Zrotation Yrotation Xrotation
			End Site
			{
				OFFSET 12.000000 0.000000 0.000000
			}
		}
	}
}
MOTION
Frames: 12
Frame Time: 0.033333
371.400574 -1.678502 -284.548553 162.207336 68.067230 163.555832 -167.250763 7.107311 4.971001 -19.523188 13.855371 -1.965028 -11.359223 12.495317 -8.333360 10.678299 18.342937 114.745300 59.016041 -24.799385 -135.949081 -85.191170 -45.269634 -161.872299 -60.602318 27.781698 14.858974 -38.350506 -18.285639 8.611990 46.120312 42.852947 -62.002792 48.908039 -51.154221 44.987278 -73.157700 -69.878746 87.389969 20.793678 -6.805700 -11.313424 -105.834846 -19.398722 12.237705 71.762817 32.265846 89.597328 172.562012 -41.155396 -92.203957 -147.382401 -4.098818 12.275462 77.862503 12.717174 -17.101278 39.354099 -25.725039 8.986896 -35.754665 -5.392900 -99.976578 -1.803502 -0.433473 -131.414185 
371.622284 -1.570126 -280.930145 161.446991 69.593040 163.181061 -169.890366 10.108525 4.402028 -14.762775 8.676357 1.245731 -11.645387 13.956681 -9.941031 8.371596 16.932102 113.318756 61.110950 -22.967447 -138.732956 -80.038452 -43.446381 -170.278503 -53.250462 27.638454 25.985645 -36.871525 -14.598765 3.855945 45.330288 42.923412 -62.063332 35.188366 -55.585205 48.307228 -52.791019 -54.978016 86.901863 -0.891505 -14.708356 -3.600037 -99.904800 -16.948456 11.400030 70.794899 28.030174 89.219666 169.484406 -47.985954 -86.616325 -144.150513 -3.941771 8.318681 65.726814 7.269562 -24.296328 49.070400 -24.422293 11.301390 -36.939003 -3.318862 -101.677193 -0.147272 -0.368592 -130.844421 
371.815887 -1.813348 -277.163116 163.397552 72.365494 165.644272 -171.727783 10.334909 3.041991 -8.907619 5.530319 2.775922 -13.461039 15.348563 -11.497913 7.179293 15.181557 111.821678 60.061909 -23.737812 -140.143631 -81.073204 -41.272015 -171.424942 -49.887684 26.609230 29.238939 -27.293995 -7.005476 -6.344934 44.491482 41.762604 -65.728516 28.194853 -57.507103 58.234253 -41.427811 -53.893944 80.624649 -4.123458 -15.405139 -8.258543 -95.884727 -15.168651 10.171691 71.911911 22.878143 87.168419 167.281296 -53.786724 -83.975578 -137.999756 -3.990668 2.604116 59.179092 -0.563774 -29.577562 55.885685 -19.364525 10.619545 -38.287640 -1.776316 -103.276413 2.156944 0.166038 -125.901199 
371.969696 -2.127321 -273.392670 164.496231 76.738808 166.129593 -172.169327 8.177460 1.593752 -5.130386 3.773942 2.401870 -15.995486 16.408573 -13.460426 6.720557 13.573972 109.564407 56.461708 -26.140408 -141.232925 -86.601868 -38.472549 -168.081314 -51.498016 25.844664 24.064777 -12.650994 5.550997 -16.759136 45.074753 39.464035 -70.846390 29.104759 -58.862793 66.816788 -33.232430 -62.135265 69.118935 -4.116623 -13.059992 -10.065881 -94.974380 -12.881646 8.658032 74.845497 18.197485 84.188751 169.719421 -54.355553 -87.664696 -133.988358 -3.917547 -4.631761 60.218025 -8.640524 -30.913185 62.670177 -16.601068 9.780617 -40.337612 0.349703 -103.891724 4.137343 1.093891 -118.987350 
372.053314 -2.291042 -269.733429 154.261597 81.918541 154.735489 -171.776917 3.719178 -0.027509 -4.380304 4.924723 1.217861 -19.586042 16.309364 -15.691461 7.565834 12.146688 107.762222 51.059795 -28.503067 -139.671127 -91.813057 -35.004951 -162.689514 -55.375923 30.023157 15.607012 7.986392 0.752804 -10.812993 48.385483 36.758514 -73.267281 36.408669 -61.111012 73.845055 -16.317356 -74.102013 43.226822 -2.087297 -11.525169 -9.294888 -100.046417 -10.679384 6.821222 79.581345 15.319780 81.356834 174.125931 -52.543045 -96.075813 -129.735275 -3.787192 -11.845511 62.834778 -15.092254 -29.784309 60.069153 -10.028435 14.340925 -44.029919 2.491877 -104.182907 5.139719 1.818735 -113.325996 
372.163452 -2.405773 -266.097565 102.359482 85.579948 102.286461 -170.860413 -2.428387 -1.610013 -5.872459 7.946326 -0.713226 -21.738127 15.891517 -16.777376 9.579380 11.429682 107.210442 44.305840 -29.985580 -136.649887 -94.880363 -33.436279 -155.755508 -60.424515 31.476570 0.415767 38.083599 -8.589817 -10.365261 54.215187 33.512264 -72.318726 49.070076 -65.782967 78.988747 45.376568 -75.279945 -31.296314 -6.414156 -15.782924 -3.924346 -110.514771 -9.888144 4.635117 85.668716 13.622989 79.063911 176.468384 -48.879898 -103.244331 -125.086380 -3.586437 -18.020590 65.785919 -19.260063 -26.466400 53.678318 -0.187072 17.676516 -47.779057 4.121870 -104.608284 5.181657 2.519103 -111.545967 
372.283417 -2.310340 -262.489227 44.191765 83.165306 44.422363 -170.552933 -9.712169 -0.769166 -6.082994 13.880903 -2.584341 -23.662472 12.866839 -18.320454 8.612791 10.590876 106.599556 40.105942 -31.709784 -131.840179 -96.947388 -32.891682 -144.266663 -71.801346 29.964373 -17.907820 44.237152 -15.992804 -10.769560 57.074062 33.258904 -72.537224 61.112930 -68.749084 83.359764 72.181564 -61.296650 -71.195419 -13.225902 -18.984608 1.317964 -123.123878 -11.077086 2.618681 89.831192 13.566459 76.659126 175.963852 -40.386780 -107.930084 -120.857544 -3.751899 -22.902620 68.481194 -20.930317 -21.000357 49.695465 4.584743 13.962337 -50.186211 5.729283 -104.683624 4.690496 2.604934 -113.989662 
372.478821 -2.148614 -258.957092 24.871922 80.026634 26.149426 -171.068375 -16.541586 1.266562 -6.638243 20.686483 -3.414676 -22.986816 10.306157 -17.626759 8.292256 10.433717 108.198608 34.740276 -32.131680 -129.192596 -91.465866 -36.878811 -135.287186 -79.368164 19.960142 -34.236706 32.100307 -9.859959 -5.285610 59.389530 33.081184 -71.375053 68.644424 -68.723198 92.479240 69.061180 -46.574306 -81.034836 -17.406160 -20.452101 3.530072 -134.617554 -14.717926 0.879729 86.431984 14.103111 73.422386 173.045776 -39.521042 -107.233368 -115.970749 -4.494517 -25.731827 70.760849 -20.922861 -15.419873 47.455833 7.644118 9.694326 -49.763702 6.240644 -104.616005 4.094905 3.168047 -120.107788 
372.738800 -2.051544 -255.303528 15.116374 78.697380 17.819698 -172.281082 -21.257246 1.976762 -6.470078 26.455528 -3.882986 -19.321495 10.303924 -13.903502 10.486519 11.484031 111.665161 30.148771 -31.575174 -128.560822 -81.210121 -43.122223 -131.116776 -74.520462 4.513647 -40.392269 13.463728 -1.069536 7.467227 62.799454 31.870232 -67.518761 68.546524 -68.313530 105.960625 59.689404 -34.800869 -85.462914 -20.501009 -18.961548 6.608641 -141.401276 -17.862276 2.330290 79.254921 15.428690 70.292587 169.815048 -40.889378 -105.251167 -109.602119 -5.517473 -25.402664 72.410461 -19.844433 -11.012114 48.516891 9.612889 7.336442 -46.530388 4.255131 -103.737976 3.505831 3.715155 -126.590530 
373.023071 -2.011758 -251.384583 12.965780 79.645042 17.340179 -174.024643 -23.312614 2.204964 -5.469587 31.975180 -4.355072 -15.907994 10.685157 -10.242248 11.445680 13.266866 115.203331 27.481524 -30.866606 -129.534363 -69.053879 -50.184509 -132.746109 -62.322605 -12.832170 -43.897053 -1.249860 2.772477 6.906278 65.537727 30.597849 -63.136032 64.455582 -66.789803 118.028847 53.581615 -24.535908 -91.017601 -22.647018 -20.485849 7.335697 -143.118500 -18.813019 6.645591 70.234329 17.760704 68.519234 166.938660 -43.458282 -102.852203 -103.943466 -6.470783 -21.236416 72.649231 -17.115969 -8.593543 53.178452 10.174483 4.713102 -42.867714 0.169993 -102.434357 2.871873 3.226071 -129.560699 
373.349426 -2.147496 -247.215942 15.148694 81.072685 19.849520 -175.365173 -22.722441 2.854921 -4.049662 36.447788 -5.695128 -13.384311 9.248929 -6.233299 10.785065 14.065594 119.940193 28.429674 -32.203213 -129.912918 -58.719776 -55.004967 -142.847824 -52.858910 -18.841461 -47.925705 -19.294582 -1.585123 -1.198358 65.256378 30.478344 -60.095779 64.648224 -65.042107 122.424561 51.786255 -16.971758 -98.063278 -21.069937 -22.308062 5.033843 -141.385468 -17.910378 13.538959 63.067635 22.767538 67.077858 158.999069 -51.256454 -95.841507 -101.418068 -5.959241 -15.350844 74.930603 -12.735171 -8.280326 59.477661 9.832084 2.926486 -39.916573 -3.279492 -101.104095 1.935845 1.547053 -129.040955 
373.627625 -2.454092 -242.860611 24.051775 82.421394 29.220955 -175.745300 -19.730707 3.891617 -4.657044 37.904671 -6.206043 -11.708666 6.437568 -3.420214 9.508081 13.727118 123.947014 30.131073 -33.054234 -128.176300 -57.161392 -55.552589 -146.014206 -51.612232 -19.364697 -46.171757 -24.928503 -7.954453 0.599865 62.868938 31.538738 -58.330578 68.892014 -62.733898 120.513069 50.943275 -14.001509 -102.154533 -11.470062 -21.662790 5.524961 -138.805862 -17.854479 19.837057 61.671085 29.122627 69.946609 160.964401 -54.148846 -94.135124 -102.145134 -5.011335 -7.395976 78.847504 -6.651876 -7.395921 61.627598 9.289474 2.675178 -37.547115 -5.925233 -99.336960 0.674644 0.760160 -127.129181 
